<svg width="1285" height="418" viewBox="0 0 1285 418" fill="none" xmlns="http://www.w3.org/2000/svg">
<path d="M54.201 218.623L19.6292 192.041L0.421875 177.29V284.848H19.6292V216.317L38.5265 230.762L54.201 242.9L69.8735 230.762L88.7727 216.317V284.848H107.98V177.29L88.7727 192.041L54.201 218.623Z" fill="#333333"/>
<path d="M172.21 177.291L127.189 265.641L117.355 284.848H138.868L148.702 265.641L172.21 219.544L195.719 265.641L205.553 284.848H227.064L217.23 265.641L172.21 177.291Z" fill="#333333"/>
<path d="M251.499 252.58V177.444H232.293V250.736C232.293 256.114 233.522 261.185 235.827 265.795C239.054 272.555 244.584 278.087 251.346 281.468C255.957 283.773 261.025 285.002 266.404 285.002H320.951V265.795L264.56 265.642C257.799 264.72 252.421 259.34 251.499 252.58Z" fill="#333333"/>
<path d="M307.584 177.444V196.651H351.682V285.002H370.889V196.651H414.988V177.444H348.637H307.584Z" fill="#333333"/>
<path d="M403.927 265.642L394.093 284.848H415.604L425.439 265.642L448.947 219.545L472.455 265.642L482.29 284.848H503.802L493.967 265.642L449.025 177.444H448.868L403.927 265.642Z" fill="#333333"/>
<path d="M509.182 285.309L509.489 285.001H509.182V285.309Z" fill="#333333"/>
<path d="M696.336 196.651C699.716 196.651 702.022 198.187 703.25 199.416C704.325 200.492 706.17 202.95 706.17 206.485C706.17 210.325 703.865 213.859 700.331 215.396V215.55C699.101 216.164 697.718 216.471 696.335 216.471H647.627V196.651H696.335H696.336ZM628.421 177.444V268.765L647.628 284.848V235.372H699.101V235.218H700.023C702.943 234.911 705.707 234.143 708.319 232.913C718.307 228.303 725.222 218.163 725.222 206.486C725.222 198.496 721.995 191.273 716.772 186.049L716.617 185.742C711.394 180.517 704.172 177.291 696.181 177.291H652.801V177.444H628.421Z" fill="#D0142C"/>
<path d="M759.492 281.468C764.102 283.773 769.171 285.002 774.55 285.002H829.096V265.796L772.706 265.642C765.944 264.72 760.566 259.342 759.644 252.58V177.443H740.438V250.737C740.438 256.115 741.668 261.186 743.972 265.796C747.199 272.556 752.73 278.087 759.492 281.468Z" fill="#D0142C"/>
<path d="M877.419 188.502C893.345 188.502 906.316 201.475 906.316 217.4C906.316 233.324 893.345 246.297 877.419 246.297C861.494 246.297 848.521 233.324 848.521 217.4C848.521 201.474 861.494 188.502 877.419 188.502ZM877.419 298.959C877.419 298.959 929.408 263.188 929.408 217.4C929.408 188.731 906.087 165.412 877.419 165.412C848.753 165.412 825.432 188.731 825.432 217.4C825.432 258.52 877.419 298.959 877.419 298.959Z" fill="#D0142C"/>
<path d="M1019.63 215.396C1018.41 216.011 1017.02 216.317 1015.64 216.317L966.931 216.471V196.649H1015.64C1019.02 196.649 1021.32 198.186 1022.55 199.415C1023.63 200.492 1025.47 202.95 1025.47 206.484C1025.47 210.324 1023.17 213.859 1019.63 215.395V215.396ZM1044.53 206.485C1044.53 198.495 1041.3 191.273 1036.07 185.895C1030.85 180.67 1023.63 177.444 1015.64 177.444H947.723V285.002H966.93V235.525H986.136C993.049 235.525 999.042 239.214 1002.42 244.745L1002.88 245.667L1013.18 265.797L1023.01 285.003H1044.52L1034.69 265.797L1019.33 235.219C1022.24 234.912 1025.01 234.144 1027.62 232.914C1037.61 228.305 1044.52 218.164 1044.52 206.487L1044.53 206.485Z" fill="#D0142C"/>
<path d="M1089.09 196.497H1167.61V177.291H1089.09C1073.11 177.291 1060.2 190.351 1060.2 206.332V255.808C1060.2 271.788 1073.11 284.848 1089.09 284.848H1167.61V265.641H1089.09C1083.71 265.641 1079.25 261.186 1079.25 255.809V235.525H1148.4V216.318H1079.25V206.332C1079.25 200.953 1083.71 196.497 1089.09 196.497Z" fill="#D0142C"/>
<path d="M1260.17 131.114C1241.66 100.069 1210.84 77.5126 1176.49 67.0406C1132.29 53.4446 1085.27 55.1285 1040.29 63.1621C1040.24 64.3525 1040.18 65.542 1040.14 66.7315C1040.11 67.631 1040.33 68.6611 1040.78 69.4388C1041.28 70.3239 1041.8 71.2072 1042.31 72.0942C1118.12 59.634 1207.5 66.8015 1249.14 137.715C1268.45 171.585 1277.57 213.813 1264.59 251.428C1247 302.591 1199.58 335.897 1151.93 357.542C1077.52 390.385 994.267 401.022 913.424 396.663C845.592 392.902 779.053 376.425 718.473 346.363C682.47 328.836 648.191 306.71 620.159 278.216C604.564 262.623 591.074 245.366 578.533 227.327L617.046 177.443H616.739H592.614L567.168 210.446C560.061 199.568 553.155 188.514 546.246 177.443H515.235C526.435 194.648 537.476 212.183 549.282 229.546C549.756 230.273 550.24 230.985 550.718 231.708L509.641 285.002H533.919L562.297 248.301C600.593 300.371 648.726 339.362 708.735 366.725C797.76 409.558 898.552 423.716 996.411 414.475C1089.52 404.991 1201.22 373.859 1258.95 294.787C1294.99 244.507 1290.91 182.839 1260.17 131.114H1260.17Z" fill="#D0142C"/>
<path d="M1040.14 66.7323C1040.18 65.5428 1040.24 64.3534 1040.29 63.163C1040.47 59.1222 1040.68 55.0814 1040.87 51.0406C1041.09 46.5333 1041.29 42.0268 1041.52 37.3035C1038.53 38.0091 1035.73 38.7196 1032.91 39.3081C1031.85 39.5298 1031.27 40.0137 1030.83 41.0006C1027.74 47.8667 1024.59 54.7079 1021.45 61.552C1021.17 62.1559 1021.06 62.7616 1020.01 62.7501C1016.56 62.7108 1013.06 62.5264 1009.68 63.0353C998.762 64.676 987.887 66.5845 977.006 68.4345C975.113 68.757 973.258 69.3014 971.089 69.8131C972.918 46.3969 974.714 23.4109 976.525 0.226074C974.982 0.590887 973.671 1.00946 972.328 1.18803C970.887 1.37716 970.218 2.1231 969.668 3.44026C959.616 27.4708 949.507 51.4803 939.423 75.4974C939.075 76.324 938.701 76.925 937.713 77.2072C930.128 79.3692 922.563 81.6013 914.994 83.8247C911.626 84.8145 908.055 85.404 904.948 86.9333C899.08 89.823 893.4 93.1294 887.813 96.5413C885.737 97.8086 883.936 99.6902 882.373 101.589C880.26 104.156 880.789 106.609 883.679 108.188C885.351 109.101 887.219 109.756 889.075 110.217C894.886 111.658 900.836 111.943 906.793 111.981C908.813 111.993 910.889 111.966 912.845 111.54C923.788 109.164 934.703 106.671 945.619 104.176C946.66 103.939 947.403 104.077 948.222 104.811C955.114 110.994 962.047 117.132 968.969 123.282C981.215 134.162 993.46 145.047 1005.72 155.908C1006.13 156.271 1006.8 156.685 1007.26 156.601C1009.29 156.238 1011.29 155.7 1013.49 155.181C1001.47 135.139 989.573 115.29 977.614 95.3404C978.023 95.2444 978.211 95.1896 978.401 95.1551C982.794 94.3477 987.271 93.8523 991.563 92.681C1003.18 89.512 1014.22 84.7781 1025.12 79.7369C1026.31 79.1878 1027.13 78.9795 1028.26 80.1152C1033.37 85.2206 1038.61 90.1917 1043.83 95.1838C1044.23 95.5592 1044.9 96.0085 1045.33 95.9192C1048.46 95.276 1051.57 94.4984 1054.77 93.7428C1054.49 93.2081 1054.3 92.7972 1054.07 92.4074C1050.15 85.6402 1046.21 78.8796 1042.31 72.096C1041.8 71.2099 1041.28 70.3276 1040.78 69.4406C1040.33 68.6639 1040.11 67.6329 1040.14 66.7333V66.7323Z" fill="#D0142C"/>
</svg>
